PathFileType	4	(X/Y/Z)	C:/Users/beibeiliu/ov580/test_trc/User2\sequence.13_training_dense_left.trc
DataRate	CameraRate	NumFrames	NumMarkers	Units	OrigDataRate	OrigDataStartFrame	OrigNumFrames
120	120	23	19	mm	120	32	62
Frame#	Time	ThumbCMC			ThumbMCP			ThumbIP			ThumbTip			IndexMCP			IndexPIP			IndexTip			MiddleMCP			MiddlePIP			MiddleTip			RingMCP			RingPIP			RingTip			PinkyMCP			PinkyPIP			PinkyTip			BackHand1			BackHand2			BackHand3	
		X0	Y0	Z0	X1	Y1	Z1	X2	Y2	Z2	X3	Y3	Z3	X4	Y4	Z4	X5	Y5	Z5	X6	Y6	Z6	X7	Y7	Z7	X8	Y8	Z8	X9	Y9	Z9	X10	Y10	Z10	X11	Y11	Z11	X12	Y12	Z12	X13	Y13	Z13	X14	Y14	Z14	X15	Y15	Z15	X16	Y16	Z16	X17	Y17	Z17	X18	Y18	Z18	
31	0.258333	-274.955	41.4881	-24.8215	-256.211	70.3615	-50.8282	-236.009	81.0337	-73.2934	-221.455	94.5228	-92.3343	-267.567	7.17068	-102.444	-267.291	11.0518	-126.628	-261.944	12.8434	-155.662	-237.885	3.54331	-105.509	-226.497	15.3129	-133.413	-215.234	29.1379	-160.223	-213.064	20.8117	-91.6368	-209.736	50.8243	-96.9243	-222.346	69.0874	-66.139	-199.068	10.7793	-74.8758	-190.503	24.1825	-100.346	-187.924	34.5548	-119.439	-230.892	-11.485	-36.7825	-239.256	-10.2267	-2.06873	-271.059	-2.30412	-28.9071	
32	0.266667	-283.701	37.4003	-26.2994	-267.259	59.6181	-54.7004	-250.689	70.9062	-84.7879	-235.313	74.0518	-104.434	-290.51	-4.92769	-93.3272	-288.234	-6.49002	-123.546	-284.909	-8.74042	-151.584	-257.523	-12.0258	-100.457	-249.578	-6.3507	-132.691	-241.432	6.18626	-162.017	-235.759	4.81327	-97.1088	-227.218	33.9255	-106.534	-234.075	56.4382	-78.3347	-215.962	-2.89727	-81.741	-215.642	7.91289	-107.339	-212.017	17.4584	-131.799	-243.41	-19.324	-36.8029	-248.035	-13.4316	-0.978831	-276.571	-7.56951	-22.5967	
33	0.275	-294.357	36.033	-25.9689	-277.766	50.6158	-61.6374	-262.536	52.884	-96.3391	-250.786	54.3285	-113.558	-305.13	-18.0563	-86.4062	-308.206	-24.411	-114.657	-309.348	-28.0442	-143.698	-279.892	-26.889	-97.6626	-273.862	-26.3568	-128.072	-268.042	-19.8813	-157.815	-255.69	-10.0133	-98.5091	-247.284	15.5956	-110.782	-248.241	42.454	-83.8358	-235.118	-18.1579	-86.5014	-236.365	-9.22159	-110.227	-233.185	-6.63232	-133.361	-260.293	-24.9967	-33.1653	-257.45	-17.7929	-1.78048	-289.405	-12.2828	-17.6762	
34	0.283333	-302.39	34.3718	-24.2082	-289.442	47.1398	-62.5531	-277.929	43.7744	-95.1521	-267.161	38.5927	-118.304	-327.237	-21.4555	-77.27	-332.097	-30.9514	-109.273	-333.836	-36.0867	-132.044	-303.429	-35.5144	-91.5531	-299.561	-37.3394	-124.364	-296.364	-32.7669	-157.346	-275.359	-22.0566	-94.7014	-270.736	6.9803	-111.459	-264.447	32.3467	-84.7443	-255.069	-27.2845	-79.9773	-258.711	-22.2065	-110.391	-261.783	-19.3253	-133.894	-275.49	-28.2101	-28.883	-266.963	-17.1609	4.4975	-300.764	-11.8891	-12.4252	
35	0.291667	-308.974	41.5612	-21.5215	-298.15	45.6555	-63.3658	-288.882	41.1893	-94.0589	-279.648	35.538	-118.513	-346.932	-14.9841	-71.7673	-357.745	-20.8285	-101.864	-359.577	-26.143	-125.051	-320.759	-33.0286	-86.9466	-325.164	-32.5261	-119.133	-324.899	-30.2823	-150.767	-293.518	-21.4744	-92.4179	-285.669	7.14418	-109.211	-278.251	29.9067	-84.6543	-275.938	-30.0045	-83.9445	-278.815	-23.9206	-110.052	-279.334	-21.2524	-130.915	-288.537	-29.0598	-27.7672	-277.32	-17.738	4.72908	-310.927	-4.17597	-7.60453	
36	0.3	-311.201	48.4073	-19.6791	-300.276	51.3955	-60.5165	-293.265	48.387	-92.6155	-287.875	46.5632	-120.814	-355.639	-3.13292	-69.1182	-367.246	-6.29303	-92.873	-374.697	-9.94351	-120.72	-337.523	-21.1471	-80.6978	-344.107	-20.426	-112.257	-340.403	-18.7836	-145.662	-307.627	-15.1035	-88.7341	-298.22	8.61076	-107.857	-284.585	35.4423	-80.6332	-291.556	-23.8401	-83.0094	-294.204	-16.8736	-108.103	-294.337	-12.3379	-134.046	-295.664	-23.1927	-24.934	-286.176	-14.3805	4.33966	-317.598	2.81982	-5.5927	
37	0.308333	-306.469	55.3401	-18.5826	-296.38	60.1096	-59.0852	-289.975	60.1319	-90.1071	-286.066	58.4599	-117.954	-363.929	18.2858	-69.6651	-376.279	20.1842	-93.025	-385.605	22.8639	-118.666	-346.299	-3.39058	-77.6654	-354.347	-0.133304	-111.562	-352.077	5.33037	-143.555	-317.369	-3.33307	-88.6789	-304.941	23.7976	-107.114	-280.865	42.4605	-84.0576	-300.304	-16.8094	-79.43	-302.364	-7.20649	-107.747	-307.734	2.9812	-128.447	-306.924	-11.214	-22.5469	-289.711	-11.2182	4.29668	-324.807	15.5142	-3.98881	
38	0.316667	-296.508	64.7666	-14.3549	-283.088	73.7376	-54.3259	-279.538	74.2155	-88.9356	-274.756	67.7476	-111.847	-360.427	48.2088	-61.6281	-373.836	57.708	-88.7738	-379.598	58.6531	-116.072	-353.957	26.9357	-74.014	-359.093	30.9968	-109.372	-356.118	38.635	-143.646	-327.027	19.2005	-87.2873	-309.704	37.221	-107.941	-281.55	53.9977	-93.3434	-311.106	2.41902	-81.4779	-310.284	10.1334	-107.146	-312.546	22.0676	-133.111	-311.348	0.0372744	-24.26	-298.283	1.64784	4.82182	-324.018	31.1982	0.0555985	
39	0.325	-279.115	73.7251	-10.446	-265.196	76.3774	-47.477	-262.08	79.0661	-86.9042	-261.806	73.6765	-114.637	-346.441	82.0741	-62.4003	-352.847	92.0965	-83.1378	-356.596	100.733	-113.893	-347.538	56.2261	-74.6919	-350.925	66.8597	-106.787	-347.525	72.704	-135.236	-327.228	42.7527	-82.6843	-307.968	54.1685	-107.845	-272.667	63.5953	-102.987	-315.479	22.4946	-81.3968	-312.919	32.7774	-106.092	-309.281	45.7981	-129.705	-316.948	20.728	-20.7582	-299.873	11.8094	4.87493	-313.585	51.1447	4.41171	
40	0.333333	-248.476	77.6932	-9.86974	-239.502	74.2225	-48.8906	-238.677	73.7497	-85.2466	-241.589	68.1197	-111.643	-308.939	110.528	-60.1316	-307.6	123.33	-83.6857	-307.931	128.161	-110.752	-322.901	90.7183	-68.5158	-325.042	102.584	-98.7873	-319.528	113.27	-129.634	-316.139	66.0554	-79.298	-301.291	73.2434	-107.125	-264.505	71.7109	-115.294	-311.776	44.3929	-73.5381	-306.988	50.9254	-102.968	-296.608	64.0054	-124.93	-311.936	40.8556	-21.9924	-298.251	27.8653	8.10825	-294.575	66.325	5.92656	
41	0.341667	-223.232	63.9812	-9.62356	-215.643	55.5649	-47.0356	-220.565	54.9385	-88.9027	-232.558	49.7609	-110.459	-264.27	116.133	-57.5395	-261.231	127.347	-82.1076	-259.243	131.168	-110.902	-292.632	106.291	-64.4153	-293.804	121.883	-93.5566	-291.854	127.067	-126.961	-297.048	80.557	-74.693	-284.683	87.8634	-103.693	-258.236	78.1135	-124.082	-299.78	53.7192	-75.6391	-288.18	59.0032	-103.959	-268.374	58.3903	-127.365	-294.377	54.3895	-18.8809	-285.929	39.1888	9.6329	-266.676	71.3108	6.82565	
42	0.35	-210.329	49.9496	-10.9521	-198.205	42.0686	-48.4041	-211.566	38.9733	-84.5415	-222.342	34.2173	-105.409	-232.97	110.331	-57.2743	-226.934	121.149	-86.9566	-220.765	125.787	-116.24	-265.808	106.989	-64.5222	-267.388	122.895	-93.4928	-259.093	132.039	-127.383	-275.011	81.9682	-73.9276	-266.485	86.2015	-106.721	-242.575	75.207	-127.009	-280.701	53.9579	-76.7744	-263.443	53.1449	-104.357	-239.897	41.596	-117.817	-278.102	55.2193	-17.745	-275.693	39.3512	9.84375	-249.409	67.0442	4.82341	
43	0.358333	-195.003	36.8311	-5.98496	-187.394	24.8196	-42.5391	-192.226	18.9126	-77.0101	-209.412	16.4931	-103.33	-207.911	96.5971	-62.7503	-194.495	107.454	-83.583	-188.598	111.982	-111.353	-238.348	96.7757	-64.7589	-231.273	118.368	-95.5779	-226.376	122.423	-126.876	-249.33	80.0821	-77.0298	-241.368	82.7903	-104.612	-222.491	62.9635	-128.945	-256.036	50.5268	-78.7747	-240.355	38.2474	-102.957	-220.986	17.3816	-106.699	-260.122	57.4634	-22.3045	-267.098	41.8136	8.34511	-230.454	63.3172	4.04149	
44	0.366667	-186.777	30.1694	2.22853	-169.898	9.44032	-32.4094	-175.449	-0.722474	-70.8003	-194.142	-4.91946	-88.2681	-184.215	80.6992	-62.3791	-173.038	89.2284	-85.2971	-163.727	95.126	-114.103	-213.169	83.5608	-68.1036	-208.385	97.7918	-99.2693	-197.605	103.044	-132.926	-231.134	67.4301	-80.5354	-221.389	66.895	-107.042	-202.782	41.6549	-127.23	-241.011	34.9949	-75.6843	-221.349	13.5153	-98.5851	-201.949	-9.26319	-88.6821	-245.471	51.895	-23.2856	-250.268	46.4353	7.71414	-215.256	64.0332	-0.344562	
45	0.375	-176.053	40.3038	7.35624	-154.772	16.6226	-20.1316	-154.233	-2.44018	-47.8019	-164.655	-15.0527	-68.5879	-179.115	78.9461	-64.0188	-166.135	87.1457	-88.3444	-157.622	92.3375	-113.765	-206.035	73.5316	-76.2953	-200.185	79.5817	-111.338	-188.178	79.8132	-139.074	-218.958	53.2325	-78.1763	-208.245	48.6785	-106.615	-181.377	22.5405	-118.878	-222.535	17.4247	-76.5991	-200.697	-2.45888	-89.2897	-179.142	-17.5576	-75.325	-240.094	41.5798	-25.3929	-246.135	44.0688	7.92761	-213.892	63.8804	-1.11629	
46	0.383333	-177.999	61.7138	7.28028	-145.201	42.8161	-9.49472	-134.453	21.2766	-35.3492	-146.209	0.69255	-54.9358	-190.655	85.4947	-65.7526	-182.462	93.7186	-90.3013	-173.113	96.8179	-118.775	-210.707	70.3847	-78.8728	-201.878	74.8766	-115.097	-186.219	69.6579	-141.518	-218.776	39.3658	-79.7738	-199.334	40.1915	-106.734	-168.201	22.3813	-108.901	-205.733	9.47758	-72.9467	-179.27	1.44161	-81.029	-155.168	-5.63385	-62.1429	-233.695	37.1623	-27.8708	-245.629	35.129	5.11538	-221.146	67.1569	-5.37435	
47	0.391667	-190.316	78.6882	8.68984	-155.017	68.8369	-5.79439	-126.77	54.9049	-29.364	-129.099	29.2234	-45.6941	-207.135	90.3427	-72.143	-200.322	99.9733	-93.5494	-191.347	106.554	-121.856	-218.383	63.6786	-79.0813	-209.591	67.019	-116.278	-184.984	69.9524	-141.424	-212.087	36.2912	-82.9475	-192	39.3721	-104.372	-155.329	36.1958	-97.5711	-191.727	13.4877	-65.7716	-158.902	13.1388	-73.5661	-136.19	20.874	-52.6031	-229.315	29.4579	-25.3867	-243.613	30.5003	0.489623	-233.462	65.9991	-9.42947	
48	0.4	-211.969	89.2883	8.97547	-172.67	93.5135	-3.50325	-139.458	89.0174	-24.709	-140.554	58.1593	-37.1134	-225.868	90.7262	-73.4323	-221.348	99.2683	-100.017	-213.375	106.742	-125.786	-225.74	60.2655	-81.3714	-216.408	69.7209	-118.065	-188.544	78.2339	-140.143	-210.204	41.8098	-78.0659	-185.929	44.9918	-102.692	-157.137	62.3215	-84.6291	-180.654	23.0745	-65.3808	-150.986	37.7542	-70.0137	-135.214	52.0263	-53.4721	-228.349	27.6178	-26.3016	-240.453	24.8317	-0.914737	-244.265	58.3308	-11.2959	
49	0.408333	-235.175	100.751	2.78475	-200.516	113.606	-6.7641	-167.91	113.145	-25.6573	-159.51	83.0797	-36.6599	-245.639	90.5414	-79.3559	-243.227	100.651	-106.2	-237.194	108.059	-129.845	-237.609	62.0352	-84.8122	-226.293	68.2765	-119.071	-196.932	83.1866	-140.448	-213.657	46.9814	-81.0615	-191.38	62.5175	-100.852	-168.947	82.1012	-81.291	-187.048	41.6925	-59.5078	-160.824	62.1711	-68.85	-144.561	85.1504	-51.82	-231.755	33.9514	-30.4648	-243.772	29.2378	0.103011	-256.822	59.5482	-15.344	
50	0.416667	-261.946	99.9239	1.77027	-229.886	125.711	-13.0481	-197.434	127.425	-28.8097	-179.756	101.159	-38.7729	-264.896	87.0924	-78.8419	-262.025	90.5467	-111.339	-260.058	99.99	-134.554	-246.839	60.4719	-86.9369	-236.974	66.2117	-122.611	-214.394	84.8134	-142.04	-221.027	53.727	-80.5575	-198.363	71.5764	-101.658	-186.835	100.505	-80.9652	-188.352	57.6239	-61.465	-168.26	80.8156	-66.4204	-168.252	108.961	-54.596	-237.418	38.0497	-30.0626	-247.375	27.6005	-3.54642	-268.916	55.36	-20.0221	
51	0.425	-276.279	95.2849	-2.29515	-250.056	129.05	-15.4578	-216.598	131.47	-31.4669	-194.83	106.379	-40.2848	-273.057	76.7222	-84.7591	-273.621	81.4346	-113.869	-269.584	87.4731	-142.381	-252.127	55.6831	-88.5253	-246.862	59.0463	-122.479	-223.026	80.2672	-150.688	-225.568	54.6935	-83.289	-207.863	72.9829	-105.669	-194.989	102.096	-93.3378	-191.77	61.3732	-58.3123	-178.458	94.4601	-65.2272	-189.925	118.04	-51.5827	-240.165	39.5117	-33.0958	-246.618	26.6091	-3.28308	-276.189	50.2639	-23.928	
52	0.433333	-278.478	87.2154	-7.67602	-259.104	121.224	-16.7463	-223.14	133.172	-39.1711	-202.104	110.847	-42.7618	-273.939	69.8665	-85.553	-275.842	73.9418	-114.058	-273.462	79.3777	-143.147	-252.91	48.4482	-93.2525	-250.321	51.8043	-124.08	-236.908	68.1426	-154.779	-223.508	49.1066	-81.3848	-211.786	65.2825	-109.09	-197.172	98.0032	-108.822	-194.123	62.2057	-60.5221	-185.529	95.9984	-64.1315	-200.985	116.447	-42.3488	-240.213	37.485	-35.0254	-247.478	20.8838	-2.81023	-277.059	45.3745	-27.2464	
53	0.441667	-286.931	82.7536	-7.91776	-264.068	116.219	-25.7476	-231.085	126.104	-44.1173	-210.234	106.323	-48.1544	-282.846	63.728	-87.3866	-286.231	68.0966	-117.079	-286.871	71.8423	-141.51	-265.36	44.8101	-96.1503	-259.934	44.2869	-129.797	-249.256	52.3501	-159.659	-236.568	43.9875	-88.3611	-221.225	52.8755	-113.215	-209.334	79.1302	-127.808	-206.112	55.579	-67.1564	-196.974	88.7966	-69.6566	-211.068	105.212	-46.5215	-246.723	26.234	-34.691	-255.836	16.2526	-7.53695	-285.193	40.0434	-29.5463	
